<svg width="32" height="32" viewBox="0 0 32 32" fill="none" xmlns="http://www.w3.org/2000/svg">
  <rect width="32" height="32" rx="8" fill="url(#gradient)"/>
  <path d="M16 8C13.2386 8 11 10.2386 11 13C11 15.7614 13.2386 18 16 18C18.7614 18 21 15.7614 21 13C21 10.2386 18.7614 8 16 8Z" fill="white"/>
  <path d="M16 10C14.3431 10 13 11.3431 13 13C13 14.6569 14.3431 16 16 16C17.6569 16 19 14.6569 19 13C19 11.3431 17.6569 10 16 10Z" fill="url(#gradient)"/>
  <path d="M8 20C8 18.8954 8.89543 18 10 18H22C23.1046 18 24 18.8954 24 20V22C24 23.1046 23.1046 24 22 24H10C8.89543 24 8 23.1046 8 22V20Z" fill="white"/>
  <defs>
    <linearGradient id="gradient" x1="0" y1="0" x2="32" y2="32" gradientUnits="userSpaceOnUse">
      <stop stop-color="#EC4899"/>
      <stop offset="1" stop-color="#8B5CF6"/>
    </linearGradient>
  </defs>
</svg>